<svg width="138" height="15" viewBox="0 0 138 15" fill="none" xmlns="http://www.w3.org/2000/svg">
<g id="Group">
<path id="Vector" d="M133.1 1.70312H4.79961C2.99961 1.70312 1.59961 3.10312 1.59961 4.90312V9.90312C1.59961 11.7031 2.99961 13.1031 4.79961 13.1031H133.1C134.9 13.1031 136.3 11.7031 136.3 9.90312V4.90312C136.3 3.10312 134.8 1.70312 133.1 1.70312Z" fill="#383635"/>
<path id="Vector_2" d="M133.1 13.7016H4.8C2.7 13.7016 1 12.0016 1 9.90156V4.90156C1 2.80156 2.7 1.00156 4.8 1.00156H133.1C135.2 1.00156 136.9 2.70156 136.9 4.80156V9.80156C136.9 12.0016 135.2 13.7016 133.1 13.7016ZM133.1 14.7016C135.7 14.7016 137.9 12.5016 137.9 9.90156V4.90156C137.9 2.30156 135.7 0.101562 133.1 0.101562H4.8C2.2 0.101563 0 2.20156 0 4.90156V9.90156C0 12.5016 2.2 14.7016 4.8 14.7016H133.1Z" fill="url(#paint0_linear_30135_65722)"/>
<g id="Group_2" opacity="0.63">
<path id="Vector_3" d="M4.79961 13.1047C4.49961 13.1047 4.19961 13.0047 3.89961 13.0047L1.59961 9.20469V5.00469C1.59961 3.20469 2.99961 1.80469 4.79961 1.80469H5.39961L12.2996 13.2047H4.79961V13.1047Z" fill="url(#paint1_linear_30135_65722)"/>
<path id="Vector_4" d="M19.9996 13.1031L13.0996 1.70312H21.3996L28.2996 13.1031H19.9996Z" fill="url(#paint2_linear_30135_65722)"/>
<path id="Vector_5" d="M35.9996 13.1031L29.0996 1.70312H37.3996L44.2996 13.1031H35.9996Z" fill="url(#paint3_linear_30135_65722)"/>
<path id="Vector_6" d="M51.8996 13.1031L45.0996 1.70312H53.3996L60.1996 13.1031H51.8996Z" fill="url(#paint4_linear_30135_65722)"/>
<path id="Vector_7" d="M67.9 13.1031L61 1.70312H69.4L76.2 13.1031H67.9Z" fill="url(#paint5_linear_30135_65722)"/>
<path id="Vector_8" d="M83.9 13.1031L77 1.70312H85.3L92.2 13.1031H83.9Z" fill="url(#paint6_linear_30135_65722)"/>
<path id="Vector_9" d="M99.9 13.1031L93 1.70312H101.3L108.2 13.1031H99.9Z" fill="url(#paint7_linear_30135_65722)"/>
<path id="Vector_10" d="M115.9 13.1031L109 1.70312H117.3L124.2 13.1031H115.9Z" fill="url(#paint8_linear_30135_65722)"/>
<path id="Vector_11" d="M136.3 9.90312C136.3 11.7031 134.9 13.1031 133.1 13.1031H131.9L125 1.70312H133.1C133.2 1.70312 133.2 1.70312 133.3 1.70312L136.3 6.60313V9.90312Z" fill="url(#paint9_linear_30135_65722)"/>
</g>
</g>
<defs>
<linearGradient id="paint0_linear_30135_65722" x1="128.569" y1="25.5461" x2="-6.6366" y2="-15.6159" gradientUnits="userSpaceOnUse">
<stop stop-color="#FFBD3E"/>
<stop offset="0.1354" stop-color="#FFC455"/>
<stop offset="0.3976" stop-color="#FFD07D"/>
<stop offset="0.6379" stop-color="#FFD899"/>
<stop offset="0.8466" stop-color="#FFDDAB"/>
<stop offset="1" stop-color="#FFDFB1"/>
</linearGradient>
<linearGradient id="paint1_linear_30135_65722" x1="22.6844" y1="25.3373" x2="-2.07881" y2="-22.0285" gradientUnits="userSpaceOnUse">
<stop stop-color="#F8FBFC"/>
<stop offset="0.0880001" stop-color="#F8FBFC" stop-opacity="0.912"/>
<stop offset="1" stop-color="#F8FBFC" stop-opacity="0"/>
</linearGradient>
<linearGradient id="paint2_linear_30135_65722" x1="38.6461" y1="25.3456" x2="13.8825" y2="-22.0207" gradientUnits="userSpaceOnUse">
<stop stop-color="#F8FBFC"/>
<stop offset="0.0880001" stop-color="#F8FBFC" stop-opacity="0.912"/>
<stop offset="1" stop-color="#F8FBFC" stop-opacity="0"/>
</linearGradient>
<linearGradient id="paint3_linear_30135_65722" x1="54.6259" y1="25.3455" x2="29.8624" y2="-22.0207" gradientUnits="userSpaceOnUse">
<stop stop-color="#F8FBFC"/>
<stop offset="0.0880001" stop-color="#F8FBFC" stop-opacity="0.912"/>
<stop offset="1" stop-color="#F8FBFC" stop-opacity="0"/>
</linearGradient>
<linearGradient id="paint4_linear_30135_65722" x1="70.606" y1="25.3455" x2="45.8427" y2="-22.0207" gradientUnits="userSpaceOnUse">
<stop stop-color="#F8FBFC"/>
<stop offset="0.0880001" stop-color="#F8FBFC" stop-opacity="0.912"/>
<stop offset="1" stop-color="#F8FBFC" stop-opacity="0"/>
</linearGradient>
<linearGradient id="paint5_linear_30135_65722" x1="86.5863" y1="25.3454" x2="61.8235" y2="-22.02" gradientUnits="userSpaceOnUse">
<stop stop-color="#F8FBFC"/>
<stop offset="0.0880001" stop-color="#F8FBFC" stop-opacity="0.912"/>
<stop offset="1" stop-color="#F8FBFC" stop-opacity="0"/>
</linearGradient>
<linearGradient id="paint6_linear_30135_65722" x1="102.566" y1="25.3454" x2="77.8034" y2="-22.0202" gradientUnits="userSpaceOnUse">
<stop stop-color="#F8FBFC"/>
<stop offset="0.0880001" stop-color="#F8FBFC" stop-opacity="0.912"/>
<stop offset="1" stop-color="#F8FBFC" stop-opacity="0"/>
</linearGradient>
<linearGradient id="paint7_linear_30135_65722" x1="118.547" y1="25.3453" x2="93.7837" y2="-22.0203" gradientUnits="userSpaceOnUse">
<stop stop-color="#F8FBFC"/>
<stop offset="0.0880001" stop-color="#F8FBFC" stop-opacity="0.912"/>
<stop offset="1" stop-color="#F8FBFC" stop-opacity="0"/>
</linearGradient>
<linearGradient id="paint8_linear_30135_65722" x1="134.527" y1="25.3453" x2="109.764" y2="-22.0203" gradientUnits="userSpaceOnUse">
<stop stop-color="#F8FBFC"/>
<stop offset="0.0880001" stop-color="#F8FBFC" stop-opacity="0.912"/>
<stop offset="1" stop-color="#F8FBFC" stop-opacity="0"/>
</linearGradient>
<linearGradient id="paint9_linear_30135_65722" x1="150.504" y1="25.347" x2="125.741" y2="-22.0188" gradientUnits="userSpaceOnUse">
<stop stop-color="#F8FBFC"/>
<stop offset="0.0880001" stop-color="#F8FBFC" stop-opacity="0.912"/>
<stop offset="1" stop-color="#F8FBFC" stop-opacity="0"/>
</linearGradient>
</defs>
</svg>
