<svg width="37" height="37" viewBox="0 0 37 37" fill="none" xmlns="http://www.w3.org/2000/svg">
<g id="Group 71584">
<g id="Ellipse 556" filter="url(#filter0_d_30135_65736)">
<circle cx="19.5" cy="15.5" r="14.5" fill="url(#paint0_radial_30135_65736)"/>
</g>
<g id="Ellipse 555" filter="url(#filter1_d_30135_65736)">
<circle cx="19.5" cy="15.5" r="13.5" fill="url(#paint1_radial_30135_65736)"/>
</g>
<path id="Vector" d="M23.4 9.1C23.7 9.3 23.8 9.5 23.6 9.8C23 10.8 22.5 11.7 21.9 12.7C21.8 12.9 21.6 13.2 21.5 13.4C21.6 13.4 21.6 13.4 21.7 13.4C22.2 13.4 22.8 13.4 23.3 13.4C23.5 13.4 23.6 13.5 23.7 13.6C23.8 13.8 23.7 13.9 23.6 14.1C21.3 17.2 19.1 20.3 16.8 23.4C16.7 23.6 16.5 23.7 16.3 23.6C16.1 23.6 16 23.5 16 23.3C16 23.2 16 23.1 16.1 23C16.7 21.3 17.4 19.5 18 17.8C18.1 17.5 18.2 17.2 18.4 16.8C18.3 16.8 18.3 16.8 18.2 16.8C17.6 16.8 17.1 16.8 16.5 16.8C16.2 16.8 16 16.6 16 16.2C16.6 13.9 17.1 11.7 17.7 9.4C17.7 9.2 17.9 9.1 18 9C19.8 9.1 21.6 9.1 23.4 9.1Z" fill="#CC7C3A"/>
</g>
<defs>
<filter id="filter0_d_30135_65736" x="0.7" y="0.7" width="35.6" height="35.6" filterUnits="userSpaceOnUse" color-interpolation-filters="sRGB">
<feFlood flood-opacity="0" result="BackgroundImageFix"/>
<feColorMatrix in="SourceAlpha" type="matrix" values="0 0 0 0 0 0 0 0 0 0 0 0 0 0 0 0 0 0 127 0" result="hardAlpha"/>
<feOffset dx="-1" dy="3"/>
<feGaussianBlur stdDeviation="1.65"/>
<feComposite in2="hardAlpha" operator="out"/>
<feColorMatrix type="matrix" values="0 0 0 0 0 0 0 0 0 0 0 0 0 0 0 0 0 0 0.13 0"/>
<feBlend mode="normal" in2="BackgroundImageFix" result="effect1_dropShadow_30135_65736"/>
<feBlend mode="normal" in="SourceGraphic" in2="effect1_dropShadow_30135_65736" result="shape"/>
</filter>
<filter id="filter1_d_30135_65736" x="1.7" y="1.7" width="33.6" height="33.6" filterUnits="userSpaceOnUse" color-interpolation-filters="sRGB">
<feFlood flood-opacity="0" result="BackgroundImageFix"/>
<feColorMatrix in="SourceAlpha" type="matrix" values="0 0 0 0 0 0 0 0 0 0 0 0 0 0 0 0 0 0 127 0" result="hardAlpha"/>
<feOffset dx="-1" dy="3"/>
<feGaussianBlur stdDeviation="1.65"/>
<feComposite in2="hardAlpha" operator="out"/>
<feColorMatrix type="matrix" values="0 0 0 0 0 0 0 0 0 0 0 0 0 0 0 0 0 0 0.13 0"/>
<feBlend mode="normal" in2="BackgroundImageFix" result="effect1_dropShadow_30135_65736"/>
<feBlend mode="normal" in="SourceGraphic" in2="effect1_dropShadow_30135_65736" result="shape"/>
</filter>
<radialGradient id="paint0_radial_30135_65736" cx="0" cy="0" r="1" gradientUnits="userSpaceOnUse" gradientTransform="translate(28.5593 4.56319) rotate(-90) scale(35.2004)">
<stop stop-color="white"/>
<stop offset="0.2588" stop-color="#FCFCFC"/>
<stop offset="0.4706" stop-color="#F2F2F2"/>
<stop offset="0.6659" stop-color="#E0E0E1"/>
<stop offset="0.85" stop-color="#C9C9C9"/>
<stop offset="1" stop-color="#AFAFB0"/>
</radialGradient>
<radialGradient id="paint1_radial_30135_65736" cx="0" cy="0" r="1" gradientUnits="userSpaceOnUse" gradientTransform="translate(27.9345 5.31745) rotate(-90) scale(32.7728)">
<stop stop-color="white"/>
<stop offset="0.2588" stop-color="#FCFCFC"/>
<stop offset="0.4706" stop-color="#F2F2F2"/>
<stop offset="0.6659" stop-color="#E0E0E1"/>
<stop offset="0.85" stop-color="#C9C9C9"/>
<stop offset="1" stop-color="#AFAFB0"/>
</radialGradient>
</defs>
</svg>
